<svg xmlns="http://www.w3.org/2000/svg" width="98" height="98" fill="none"><g clip-path="url(#a)"><rect width="96" height="96" x="1" y="1" fill="#fff" rx="3.032"/><mask id="b" width="96" height="96" x="1" y="1" maskUnits="userSpaceOnUse" style="mask-type:luminance"><path fill="#fff" d="M1 4.032A3.032 3.032 0 0 1 4.032 1h89.936A3.032 3.032 0 0 1 97 4.032v89.936A3.032 3.032 0 0 1 93.968 97H4.032A3.032 3.032 0 0 1 1 93.968V4.032Z"/></mask><rect width="75.79" height="32.842" x="11.105" y="16.158" fill="#BFD4E4" rx="2.021"/><path fill="#F2F7F9" fill-rule="evenodd" d="M54.558 28.509c0-.68-.556-1.235-1.235-1.235h-8.646c-.68 0-1.235.555-1.235 1.235v8.645c0 .68.556 1.235 1.235 1.235h8.646c.679 0 1.235-.555 1.235-1.235V28.51Zm-7.72 5.249 1.544 1.859 2.162-2.785 2.779 3.705h-8.646l2.161-2.78Z" clip-rule="evenodd"/><rect width="75.79" height="32.842" x="11.105" y="16.158" fill="#F4F6F8" rx="2.021"/><rect width="25.263" height="20.21" x="6.053" y="54.053" fill="#F4F6F8" rx="2.021"/><path fill="#F2F7F9" fill-rule="evenodd" d="M23.232 60.621c0-.556-.455-1.01-1.011-1.01h-7.074c-.556 0-1.01.454-1.01 1.01v7.074c0 .556.454 1.01 1.01 1.01h7.074c.556 0 1.01-.454 1.01-1.01V60.62Zm-6.316 4.295 1.263 1.52 1.768-2.278 2.274 3.031h-7.074l1.769-2.273Z" clip-rule="evenodd"/><rect width="25.263" height="5.053" x="6.053" y="79.316" fill="#DFE1EC" rx="1.011"/><rect width="20.21" height="5.053" x="8.579" y="86.895" fill="#EAEBF2" rx="1.011"/><rect width="25.263" height="20.21" x="36.369" y="54.053" fill="#F4F6F8" rx="2.021"/><path fill="#F2F7F9" fill-rule="evenodd" d="M53.547 60.621c0-.556-.454-1.01-1.01-1.01h-7.074c-.556 0-1.01.454-1.01 1.01v7.074c0 .556.454 1.01 1.01 1.01h7.074c.556 0 1.01-.454 1.01-1.01V60.62Zm-6.315 4.295 1.263 1.52 1.768-2.278 2.274 3.031h-7.074l1.769-2.273Z" clip-rule="evenodd"/><path fill="#DFE1EC" fill-rule="evenodd" d="M36.369 80.326c0-.558.452-1.01 1.01-1.01h23.242c.558 0 1.01.452 1.01 1.01v3.032a1.01 1.01 0 0 1-1.01 1.01H37.38a1.01 1.01 0 0 1-1.01-1.01v-3.032Z" clip-rule="evenodd"/><rect width="20.21" height="5.053" x="38.895" y="86.895" fill="#EAEBF2" rx="1.011"/><rect width="25.263" height="20.21" x="66.684" y="54.053" fill="#F4F6F8" rx="2.021"/><path fill="#F2F7F9" fill-rule="evenodd" d="M83.863 60.621c0-.556-.454-1.01-1.01-1.01h-7.074c-.556 0-1.01.454-1.01 1.01v7.074c0 .556.454 1.01 1.01 1.01h7.074c.556 0 1.01-.454 1.01-1.01V60.62Zm-6.316 4.295 1.264 1.52 1.768-2.278 2.274 3.031h-7.074l1.769-2.273Z" clip-rule="evenodd"/><path fill="#DFE1EC" fill-rule="evenodd" d="M66.684 80.326c0-.558.453-1.01 1.01-1.01h23.243c.558 0 1.01.452 1.01 1.01v3.032a1.01 1.01 0 0 1-1.01 1.01H67.695a1.01 1.01 0 0 1-1.01-1.01v-3.032Z" clip-rule="evenodd"/><rect width="20.21" height="5.053" x="69.21" y="86.895" fill="#EAEBF2" rx="1.011"/><path fill="#DFE3E8" d="M1 4.032A3.032 3.032 0 0 1 4.032 1h89.936A3.032 3.032 0 0 1 97 4.032v7.073H1V4.032Z"/><path fill="#F2F7F9" fill-rule="evenodd" d="M6.305 8.074a1.768 1.768 0 1 0 0-3.537 1.768 1.768 0 0 0 0 3.537Zm5.053 0a1.768 1.768 0 1 0 0-3.537 1.768 1.768 0 0 0 0 3.537Zm6.82-1.769a1.768 1.768 0 1 1-3.536 0 1.768 1.768 0 0 1 3.537 0Z" clip-rule="evenodd"/></g><rect width="96" height="96" x="1" y="1" stroke="#8390E4" stroke-linejoin="round" stroke-width="1.516" rx="3.032"/><defs><clipPath id="a"><rect width="96" height="96" x="1" y="1" fill="#fff" rx="3.032"/></clipPath></defs></svg>