<svg width="100" height="84" fill="none" xmlns="http://www.w3.org/2000/svg"><g clip-path="url(#a)"><path fill="#fff" d="M0 0h100v84H0z"/><path fill-rule="evenodd" clip-rule="evenodd" d="M89.257 48.34c.715-21.349-24.601-41.188-44.18-34.863-19.58 6.325-34.905 25.36-26.701 48.698 5.469 15.56 19.17 21.585 41.104 18.075 19.375-7.04 29.3-17.678 29.777-31.91z" fill="#EFF1FA"/><path fill-rule="evenodd" clip-rule="evenodd" d="M37.684 28.613c12.035-4.775 41.38-5.74 49.399 2.842 8.019 8.583 5.366 20.354-5.205 24.163-10.57 3.809-37.206 3.567-46.149-1.154-8.627-4.555-10.08-21.076 1.955-25.85z" fill="#FFC26D"/><path d="M76.345 25.634H39.748C31.603 25.634 25 32.237 25 40.382S31.603 55.13 39.748 55.13h36.597c8.145 0 14.747-6.603 14.747-14.748S84.49 25.634 76.345 25.634z" stroke="#2A2F54" stroke-width="2.5"/><path d="M41.476 40.55c1.086.297 3.215-.111 6.227-1.621 3.013-1.51 5.423 2.337 7.912 2.422 2.488.085 4.916-1.931 7.805-2.032 2.889-.101 3.154 2.302 7.93 2.135 1.454-.05 2.94-.498 4.808-2.096" stroke="#2A2F54" stroke-width="2.5" stroke-linecap="round"/><path fill-rule="evenodd" clip-rule="evenodd" d="M51.755 68.556a2.238 2.238 0 0 0 2.487-1.958c.097-.818-.484-2.25-1.744-4.296-1.703 1.694-2.604 2.95-2.701 3.768a2.238 2.238 0 0 0 1.959 2.487z" fill="#fff"/><path fill-rule="evenodd" clip-rule="evenodd" d="M53.15 69.474a2.238 2.238 0 0 0 2.486-1.96c.097-.817-.484-2.25-1.744-4.295-1.704 1.694-2.604 2.95-2.702 3.768a2.238 2.238 0 0 0 1.96 2.487z" fill="#FFC26D"/><path clip-rule="evenodd" d="M51.755 68.556a2.238 2.238 0 0 0 2.487-1.958c.097-.818-.484-2.25-1.744-4.296-1.703 1.694-2.604 2.95-2.701 3.768a2.238 2.238 0 0 0 1.959 2.487z" stroke="#2A2F54" stroke-width="1.46" stroke-linejoin="round"/><path fill-rule="evenodd" clip-rule="evenodd" d="M25.627 54.495c1.526-.928 2.66-2.297 3.402-4.108.742-1.81.976-3.779.702-5.906l21.117 11.146-7.48 9.85c-4.295-2.101-7.44-3.77-9.436-5.005-1.995-1.235-4.763-3.227-8.305-5.977z" fill="#fff"/><path fill-rule="evenodd" clip-rule="evenodd" d="M33.81 56.755c.692-1.824 5.005-.635 7.63-.765 2.623-.13 5.215-.25 6.55.778.889.686 1.216 1.692.981 3.02-1.073 2.195-2.01 3.614-2.813 4.257-1.204.965-3.884-.283-6.431-1.871-2.548-1.589-6.609-3.595-5.917-5.419z" fill="#D7DCFF"/><path d="m48.337 58.521-3.265 4.714m-18.088-9.777c.862-.821 1.544-1.845 2.046-3.07.296-.723.511-1.47.646-2.244" stroke="#2A2F54" stroke-width="1.46" stroke-linecap="round"/><path fill-rule="evenodd" clip-rule="evenodd" d="M25.618 54.573c1.058.374 4.607 3.541 8.941 5.974 4.532 2.542 9.848 4.36 10.606 5.074 1.483 1.395-.495 4.23-3.328 4.21-2.252-.018-6.001-4.63-9.215-.56-3.214 4.07-4.293 7.866-6.955 9.428-2.661 1.563-6.092-1.711-4.583-4.214 1.51-2.503 6.671-4.707 7.523-7.12.851-2.415.982-3.912-1.65-5.086-2.632-1.173-3.719-2.042-4.252-4.026-.533-1.985.75-4.446 2.913-3.68z" fill="#fff"/><path fill-rule="evenodd" clip-rule="evenodd" d="M27.153 55.878c1.06.358 4.63 3.34 8.98 5.644 4.547 2.407 9.873 4.146 10.636 4.817 1.493 1.313-.46 3.943-3.29 3.9-2.25-.034-6.033-4.365-9.212-.595-3.178 3.771-4.226 7.302-6.872 8.739-2.647 1.436-6.1-1.645-4.613-3.968 1.488-2.323 6.628-4.337 7.459-6.582.831-2.245.95-3.64-1.69-4.756-2.637-1.116-3.73-1.935-4.28-3.79-.548-1.855.715-4.14 2.882-3.409z" fill="#92A1FF"/><path fill-rule="evenodd" clip-rule="evenodd" d="M23.385 78.118c.02-1.655 9.849-11.761 12.914-14.587 2.043-1.884 5.083-1.115 9.12 2.305-.597 1.77-1.837 2.802-3.72 3.095-2.823.44-3.702-2.804-6.336-1.527-1.33.645-4.68 7.137-7.888 10.854-.234.272-4.12 2.485-4.09-.14z" fill="#677CFF"/><path clip-rule="evenodd" d="M25.618 54.573c1.058.374 4.607 3.541 8.941 5.974 4.532 2.542 9.848 4.36 10.606 5.074 1.483 1.395-.495 4.23-3.328 4.21-2.252-.018-6.001-4.63-9.215-.56-3.214 4.07-4.293 7.866-6.955 9.428-2.661 1.563-6.092-1.711-4.583-4.214 1.51-2.503 6.671-4.707 7.523-7.12.851-2.415.982-3.912-1.65-5.086-2.632-1.173-3.719-2.042-4.252-4.026-.533-1.985.75-4.446 2.913-3.68z" stroke="#2A2F54" stroke-width="1.46"/><path d="M23.72 76.429a1.119 1.119 0 1 0 1.243-1.86 1.119 1.119 0 0 0-1.244 1.86z" fill="#2A2F54"/><path fill-rule="evenodd" clip-rule="evenodd" d="M35.498 42.562c-2-1.221-4.811-1.467-6.046.265-1.235 1.732-.378 4.157 1.124 4.851 1.503.695 3.387.296 6.057 1.166 2.67.87 2.316 3.564 4.302 4.669 1.987 1.104 4.465.427 6.247 1.5 1.783 1.073 1.926 3.89 3.742 4.108 1.816.218 3.33-1.027 1.58-4.535-1.75-3.507-5.103-4.449-9.41-6.389-4.306-1.94-5.597-4.415-7.596-5.636z" fill="#fff"/><path fill-rule="evenodd" clip-rule="evenodd" d="M35.88 44.089c-1.919-1.138-4.426-1.684-5.598-.09-1.172 1.593-.34 3.838 1.1 4.487 1.441.65 3.241.291 5.8 1.108 2.557.817 2.232 3.305 4.137 4.335 1.906 1.03 4.272.418 5.982 1.418 1.711 1 1.862 3.603 3.6 3.814 1.738.212 2.148-.79.457-4.04-1.692-3.248-3.8-3.404-7.928-5.219-4.129-1.815-5.633-4.675-7.55-5.813z" fill="#FFC26D"/><path clip-rule="evenodd" d="M35.473 42.036c-2-1.221-4.812-1.467-6.046.265-1.235 1.732-.379 4.157 1.124 4.852 1.503.694 3.387.296 6.057 1.165 2.67.87 2.316 3.564 4.302 4.669 1.986 1.104 4.464.427 6.247 1.5 1.783 1.073 1.925 3.89 3.741 4.108 1.816.218 3.33-1.027 1.58-4.534-1.75-3.508-5.102-4.45-9.409-6.39-4.307-1.94-5.597-4.414-7.596-5.635z" stroke="#2A2F54" stroke-width="1.46"/><path d="m45.158 57.072-2.59 3.788M41.941 56.916l-1.186 1.798" stroke="#A4ABE2" stroke-width="1.46" stroke-linecap="round"/></g><defs><clipPath id="a"><path fill="#fff" d="M0 0h100v84H0z"/></clipPath></defs></svg>