<svg width="100" height="84" fill="none" xmlns="http://www.w3.org/2000/svg"><g clip-path="url(#a)"><path fill="#fff" d="M0 0h100v84H0z"/><path fill-rule="evenodd" clip-rule="evenodd" d="M85.513 49.12c.714-21.297-24.541-41.088-44.072-34.779-19.532 6.31-34.82 25.298-26.636 48.58C20.261 78.44 33.93 84.452 55.81 80.95c19.327-7.024 29.228-17.634 29.704-31.832z" fill="#EFF1FA"/><g filter="url(#b)"><path d="M20.729 25.888c2.456-1.911 70.067-1.911 71.34 0 1.274 1.91 2.366 44.77 0 47.828-2.365 3.058-69.43 2.947-71.34 0-1.911-2.948-2.457-45.917 0-47.828z" fill="#fff"/></g><path d="M39.565 25.399c-10.117.134-17.847.404-18.563.762-2.184 1.092-3.003 47.227-.273 48.591 2.73 1.365 68.792 2.457 70.43.546 1.638-1.91 2.184-46.68.82-48.591-.436-.61-7.588-.997-17.199-1.206" stroke="#2A2F54" stroke-width="1.295" stroke-linecap="round"/><path d="M36.53 41.073c1.503 1.314 3.18 2.06 5.027 2.237 2.773.267 4.512-1.894 7.481-1.894 2.97 0 4.082 1.894 7.169 1.894 3.087 0 5.475-1.752 7.4-1.894 1.923-.143 3.082 1.243 6.191 1.243 2.073 0 3.926-.186 5.56-.556" stroke="#99A0C3" stroke-width="2.59" stroke-linecap="round"/><path d="M32.599 48.417c1.464.141 4.38-.01 8.55-.63 4.17-.618 7.273 1.078 10.655 1.144 3.383.066 6.781-.779 10.718-.788 3.936-.01 4.185 1.035 10.692 1.019 1.982-.005 4.026-.181 6.642-.852M35.19 52.933c1.246.141 3.73-.01 7.281-.626 3.551-.617 6.193 1.08 9.074 1.147 2.881.067 5.775-.776 9.127-.785 3.352-.008 3.565 1.037 9.107 1.023 1.687-.004 3.428-.18 5.656-.849" stroke="#CFD3E9" stroke-width="1.295" stroke-linecap="round"/><path d="m83.96 33.022 2.227-2.227m-2.227 2.227-2.227 2.226m2.227-2.226-2.227-2.227m2.227 2.227 2.227 2.226" stroke="#2A2F54" stroke-width="1.295" stroke-linecap="round"/><path fill-rule="evenodd" clip-rule="evenodd" d="M46.972 59.12c5.217-2.07 17.936-2.488 21.412 1.232 3.476 3.72 2.326 8.822-2.256 10.473-4.582 1.651-16.126 1.547-20.003-.5-3.74-1.974-4.37-9.135.847-11.205z" fill="#FFC26D"/><path d="M63.73 57.83H47.868a6.392 6.392 0 1 0 0 12.784H63.73a6.392 6.392 0 1 0 0-12.785z" stroke="#2A2F54" stroke-width="1.295"/><path d="M48.617 64.295c.47.128 1.393-.049 2.7-.703 1.305-.655 2.35 1.013 3.428 1.05 1.079.037 2.131-.837 3.383-.881 1.252-.044 1.367.998 3.437.925.63-.022 1.275-.216 2.085-.908" stroke="#2A2F54" stroke-width="1.295" stroke-linecap="round"/><path d="M55.149 14.294c.009.001.014.01.017.028.644.466 12.412 6.536 14.73 8.438 2.425 1.988-18.193 12.439-20.353 12.529-2.16.09-1.482-.209-1.595-1.298-.11-1.066 7.316-18.864 7.218-19.67-.03-.02-.036-.03-.017-.027z" fill="#FFE8A0"/><path d="M61.193 19.83c-5.758-3.109-5.496-7.174-5.496-7.174l12.561 9.805s-1.308.478-7.065-2.631zM58.047 29.704c-2.869.125-6.616-2.403-6.766-3.848-.15-1.446 1.553-6.979 2.504-6.59.95.388 7.951 8.054 8.545 7.957.593-.096-2.385 2.4-4.283 2.482zM48.908 35.84c-.736.005-1.763-.19-1.824-.783-.062-.593.714-2.51.714-2.51s2.939 1.658 3.09 1.628c.151-.03-1.493 1.661-1.98 1.665z" fill="#FFC26D"/><path d="M46.683 29.314s.29 1.609 1.692 2.89c1.4 1.282 3.497 1.753 3.497 1.753M48.594 23.033s.98 2.42 3.788 4.865c2.806 2.445 5.498 2.782 5.498 2.782M51.053 15.386s.595 4.073 4.464 7.384c3.869 3.31 7.825 4.633 7.825 4.633" stroke="#2A2F54" stroke-width="1.295" stroke-linecap="round"/><path d="M66.573 12.585s-1.546-3.41.162-4.183c1.708-.772 3.844 2.578 4.901 1.278 1.058-1.3-2.074-2.761-1.016-4.061 1.057-1.3 3.07.872 4.066-1.017.996-1.888-.956-3.472-.956-3.472" stroke="#FFA7A7" stroke-width="1.295" stroke-linecap="round"/><path d="M64.86 18.606s.83-2.117 5-3.44c4.168-1.322 7.343.38 7.343.38" stroke="#AFBAFF" stroke-width="1.295" stroke-linecap="round"/><path d="m56.897 12.261-3.214-2.61a.641.641 0 0 0-1.02.29c-1.387 4.231-7.28 22.3-7.28 24 0 1.928 1.51 2.3 2.77 2.25 1.116-.044 17.596-10.26 21.353-12.599a.64.64 0 0 0 .055-1.044l-2.709-2.2" stroke="#2A2F54" stroke-width="1.295" stroke-linecap="round"/><path d="M53.185 9.617c3.053 8.587 7.625 10.8 16.165 13.416" stroke="#2A2F54" stroke-width="1.295" stroke-linecap="round"/><circle cx="51.061" cy="5.45" r="1.262" transform="rotate(-5.914 51.06 5.45)" fill="#FFE8A0"/><circle cx="62.819" cy="5.477" r="1.262" transform="rotate(-5.914 62.82 5.477)" fill="#FFE8A0"/><circle cx="57.602" cy="2.121" r="1.262" transform="rotate(-5.914 57.602 2.121)" fill="#FFA7A7"/><path d="M57.628 5.293s2.552 1.07 3.522 3.684c.969 2.614-.43 5.797-.43 5.797" stroke="#D49BF4" stroke-width="1.295" stroke-linecap="round"/><circle cx="66.274" cy="1.223" r="1.262" transform="rotate(-5.914 66.274 1.223)" fill="#D49BF4"/><circle cx="73.263" cy="22.266" r="1.262" transform="rotate(-5.914 73.263 22.266)" fill="#FFE8A0"/><circle cx="66.476" cy="29.287" r="1.262" transform="rotate(-5.914 66.476 29.287)" fill="#AFBAFF"/><circle cx="70.973" cy="31.036" r="1.262" transform="rotate(-5.914 70.973 31.036)" fill="#FFA7A7"/><circle cx="46.932" cy="14.63" r="1.262" transform="rotate(-5.914 46.932 14.63)" fill="#AFBAFF"/></g><defs><clipPath id="a"><path fill="#fff" d="M0 0h100v84H0z"/></clipPath><filter id="b" x="16.514" y="22.675" width="79.52" height="56.654" filterUnits="userSpaceOnUse" color-interpolation-filters="sRGB"><feFlood flood-opacity="0" result="BackgroundImageFix"/><feColorMatrix in="SourceAlpha" values="0 0 0 0 0 0 0 0 0 0 0 0 0 0 0 0 0 0 127 0" result="hardAlpha"/><feOffset dy=".791"/><feGaussianBlur stdDeviation="1.285"/><feColorMatrix values="0 0 0 0 0 0 0 0 0 0 0 0 0 0 0 0 0 0 0.09 0"/><feBlend in2="BackgroundImageFix" result="effect1_dropShadow_201_3559"/><feBlend in="SourceGraphic" in2="effect1_dropShadow_201_3559" result="shape"/></filter></defs></svg>