<svg width="100" height="84" fill="none" xmlns="http://www.w3.org/2000/svg"><g clip-path="url(#a)"><path fill="#fff" d="M0 0h100v84H0z"/><path fill-rule="evenodd" clip-rule="evenodd" d="M89.257 48.34c.715-21.349-24.601-41.188-44.18-34.863-19.58 6.325-34.905 25.36-26.701 48.698 5.469 15.56 19.17 21.585 41.104 18.075 19.375-7.04 29.3-17.678 29.777-31.91z" fill="#EFF1FA"/><path fill-rule="evenodd" clip-rule="evenodd" d="M50.205 3.82c-.811 2.472 19.827 25.519 21.476 26.544.33.205 1.855.471 2.694 0 1.039-.584-.021-2.71 1.388-3.807 1.346-1.049 5.163-1.055 6.08-2.262 1.221-1.607 1.282-3.474 1.282-4.126C83.125 18.101 73.852 3 72.343 3c-1.508 0-3.482.82-4.67.82-1.19 0-5.603-1.363-7.868 0-2.602 1.565-9.323-.845-9.6 0z" fill="#FFD8B2"/><path fill-rule="evenodd" clip-rule="evenodd" d="M74.234 5.903c.817 1.974 7.485 12.506 9.043 12.506 1.557 0 1.557-10.185 0-11.64-1.558-1.453-9.86-2.84-9.043-.866zM34.927 5.554c2.335-1.013 11.876-1.267 14.035 0 .711.417 22.696 27.368 21.679 28.557-1.516 1.773-33.766-1.211-36.238-1.718-2.472-.506-1.81-25.826.524-26.84z" fill="#B1B4FF"/><path fill-rule="evenodd" clip-rule="evenodd" d="M75.285 73.16c.729-.555 2.347-.856 4.856-.902a4.012 4.012 0 0 1 4.086 4.01v2.327a4.012 4.012 0 0 1-4.013 4.011h-2.238c-2.216 0-4.122-2.925-4-4.981.173-2.931.55-3.885 1.31-4.464z" fill="#B1BBFF"/><path fill-rule="evenodd" clip-rule="evenodd" d="M75.959 72.644c-.793.131-1.375.333-1.66.572-.281.236-.507.666-.66 1.27-.15.595-.219 1.319-.22 2.09-.001 1.545.27 3.229.658 4.365.155.451.608.813 1.332 1.064.715.248 1.63.365 2.582.373.95.009 1.919-.091 2.735-.265.832-.176 1.457-.419 1.76-.666.13-.107.26-.288.38-.55a4.71 4.71 0 0 0 .296-.952c.157-.74.227-1.642.22-2.552a14.215 14.215 0 0 0-.241-2.555 6.191 6.191 0 0 0-.26-.958c-.101-.267-.205-.447-.298-.548-.09-.096-.256-.203-.514-.309a5.569 5.569 0 0 0-.936-.273c-.733-.155-1.635-.247-2.554-.267-.92-.02-1.844.033-2.62.161zm6.346-.196c.292.12.554.27.733.461.173.187.312.454.424.752a6.8 6.8 0 0 1 .288 1.056c.156.787.245 1.73.253 2.67.008.94-.064 1.89-.234 2.687a5.32 5.32 0 0 1-.338 1.08c-.14.31-.32.584-.553.774-.424.347-1.175.613-2.023.793-.862.183-1.877.287-2.87.278-.99-.008-1.978-.129-2.78-.407-.792-.276-1.47-.73-1.715-1.45-.414-1.21-.694-2.963-.692-4.567.001-.802.073-1.58.24-2.242.165-.653.434-1.234.862-1.593.423-.355 1.152-.575 1.958-.709.822-.136 1.786-.19 2.734-.169.948.02 1.89.115 2.67.28.39.083.745.184 1.043.306z" fill="#2A2F54"/><path fill-rule="evenodd" clip-rule="evenodd" d="M76.536 75.888a.31.31 0 0 1 .44.014l3.189 3.395a.31.31 0 0 1-.453.426l-3.19-3.396a.31.31 0 0 1 .014-.439z" fill="#2A2F54"/><path fill-rule="evenodd" clip-rule="evenodd" d="M80.233 75.97a.31.31 0 0 1-.045.437c-.705.575-1.248 1.054-1.632 1.438-.385.384-.924.988-1.62 1.815a.31.31 0 0 1-.476-.4c.7-.83 1.252-1.45 1.657-1.855s.966-.898 1.679-1.48a.31.31 0 0 1 .437.045z" fill="#2A2F54"/><path opacity=".7" fill-rule="evenodd" clip-rule="evenodd" d="M38.194 11.635c.735-.812 3.708-.918 4.688 0 .98.918 1.153 3.521 0 4.688-1.152 1.166-3.522 1.166-4.688 0-1.167-1.167-.736-3.876 0-4.688z" fill="#fff"/><path d="M65.579 42.887H50.67a.776.776 0 1 0 0 1.553h14.908a.776.776 0 0 0 0-1.553z" fill="#C8CDE8"/><path d="M76.138 46.924H40.11a.776.776 0 1 0 0 1.553h36.027a.776.776 0 1 0 0-1.553zM73.343 49.72H45.08a.776.776 0 0 0 0 1.553h28.262a.776.776 0 1 0 0-1.553z" fill="#E9EBF7"/><path d="M61.23 57.261h-5.9a.777.777 0 0 0 0 1.553h5.9a.776.776 0 1 0 0-1.553z" fill="#fff"/><path fill-rule="evenodd" clip-rule="evenodd" d="M51.253 6.618a.31.31 0 0 1 .436.048l18.606 23.121a.31.31 0 0 1-.484.39L51.205 7.055a.31.31 0 0 1 .048-.437zM72.687 6.081a.31.31 0 0 1 .436.057L82.44 18.25a.31.31 0 0 1-.492.379L72.63 6.517a.31.31 0 0 1 .057-.436z" fill="#2A2F54"/><path fill-rule="evenodd" clip-rule="evenodd" d="M33.37 5.895s0 .002-.002.003a.819.819 0 0 0-.044.121 3.986 3.986 0 0 0-.088.389c-.061.332-.124.79-.186 1.368-.124 1.154-.246 2.761-.362 4.734-.233 3.943-.445 9.33-.617 15.432-.345 12.203-.532 27.255-.415 39.314a1.846 1.846 0 0 0 1.82 1.837c2.172.033 4.717.076 7.486.124 6.854.117 15.084.258 22.428.321 5.156.044 9.872.05 13.366-.017 1.748-.034 3.186-.086 4.22-.16.517-.037.926-.08 1.22-.127.147-.024.258-.047.337-.07.054-.016.078-.028.083-.03.175-.165.361-.496.519-1.289.159-.8.28-2.02.364-3.9.168-3.76.19-10.101.11-20.893a.31.31 0 0 1 .62-.005c.081 10.788.06 17.147-.11 20.925-.085 1.887-.207 3.145-.375 3.994-.167.842-.39 1.337-.72 1.637a.815.815 0 0 1-.318.157 3.49 3.49 0 0 1-.412.087c-.32.052-.75.096-1.274.133-1.05.076-2.5.128-4.252.162-3.504.067-8.227.061-13.383.017-7.348-.063-15.583-.204-22.438-.321-2.768-.047-5.31-.091-7.48-.124a2.467 2.467 0 0 1-2.432-2.452c-.117-12.069.07-27.129.415-39.338.172-6.104.384-11.498.618-15.45.116-1.976.239-3.596.364-4.764.063-.584.128-1.06.194-1.416.032-.177.067-.329.103-.451.033-.112.078-.237.149-.327.098-.127.25-.216.4-.283.157-.07.353-.135.578-.194.45-.12 1.053-.228 1.779-.328 1.453-.2 3.433-.366 5.76-.5 4.655-.268 10.717-.406 16.762-.412 6.044-.006 12.076.122 16.669.387 2.295.132 4.237.3 5.644.503.703.101 1.282.213 1.708.338.212.062.398.13.545.206.136.072.288.175.368.331.036.07.06.154.08.234.02.085.04.187.057.303.037.234.072.54.107.91.069.742.135 1.76.2 3.01.127 2.5.244 5.946.346 10.005a.31.31 0 1 1-.621.015c-.102-4.056-.219-7.495-.346-9.989a76.464 76.464 0 0 0-.198-2.984 14.814 14.814 0 0 0-.101-.87 3.429 3.429 0 0 0-.068-.328.305.305 0 0 0-.006-.017c-.006-.005-.032-.03-.106-.069a2.447 2.447 0 0 0-.431-.161c-.385-.112-.93-.22-1.622-.32-1.381-.199-3.303-.365-5.592-.497-4.577-.264-10.595-.392-16.633-.386-6.037.006-12.087.144-16.726.412-2.321.133-4.283.298-5.712.494-.715.099-1.289.203-1.704.313-.208.055-.368.11-.483.16a.88.88 0 0 0-.127.069.228.228 0 0 0-.035.027z" fill="#2A2F54"/><path fill-rule="evenodd" clip-rule="evenodd" d="M47.327 55.109c.911-.45 20.232-1.312 21.058.265.826 1.577.34 5.965 0 6.17-.503.303-19.195 1.38-20.677 0-1.482-1.38-.833-6.212-.381-6.435z" fill="#FFAF82"/><path fill-rule="evenodd" clip-rule="evenodd" d="M68.615 55.476c.06.017.164.051.242.123.149.137.24.363.305.577.07.23.127.515.172.829.092.629.141 1.408.146 2.18.005.77-.034 1.544-.123 2.163a4.716 4.716 0 0 1-.18.815c-.07.206-.178.438-.365.562a.732.732 0 0 1-.224.09 3.009 3.009 0 0 1-.264.05c-.201.03-.468.06-.788.087-.642.056-1.513.106-2.536.15-2.046.087-4.71.15-7.371.174-2.662.023-5.326.009-7.374-.057a43.296 43.296 0 0 1-2.54-.141 8.505 8.505 0 0 1-.799-.107 2.165 2.165 0 0 1-.275-.07.645.645 0 0 1-.244-.137c-.151-.149-.25-.38-.321-.61a5.764 5.764 0 0 1-.18-.862 16.657 16.657 0 0 1-.138-2.21c-.001-.772.039-1.54.118-2.147.039-.302.089-.573.151-.787a1.73 1.73 0 0 1 .112-.295.675.675 0 0 1 .199-.248.47.47 0 0 1 .123-.06.996.996 0 0 1 .103-.029c.07-.015.155-.029.251-.042.195-.025.456-.05.773-.071a73.283 73.283 0 0 1 2.53-.12c2.055-.07 4.745-.118 7.435-.133 2.691-.015 5.386.001 7.45.06 1.032.028 1.91.068 2.554.12.32.025.589.054.79.088.1.016.192.035.268.058zm-21.916.647a1.129 1.129 0 0 0-.075.199c-.05.17-.095.406-.132.693a16.566 16.566 0 0 0-.112 2.066c.001.755.044 1.513.13 2.123.044.306.098.566.16.767.057.187.112.289.148.334a1.567 1.567 0 0 0 .218.058c.177.034.425.067.738.096.624.06 1.483.106 2.501.139 2.036.066 4.69.08 7.348.056 2.657-.023 5.314-.086 7.35-.173 1.02-.044 1.881-.093 2.51-.147.314-.028.565-.055.747-.083a2.385 2.385 0 0 0 .243-.05.299.299 0 0 0 .03-.043c.026-.044.055-.108.085-.195.06-.175.112-.414.154-.704.084-.578.122-1.32.117-2.07-.005-.752-.053-1.501-.14-2.095a5.268 5.268 0 0 0-.151-.739 1.497 1.497 0 0 0-.084-.221.505.505 0 0 0-.033-.059 9.406 9.406 0 0 0-.944-.127c-.627-.05-1.493-.09-2.52-.118a234.304 234.304 0 0 0-7.43-.059c-2.687.015-5.37.063-7.417.132a72.673 72.673 0 0 0-2.508.12c-.312.021-.56.044-.736.067a2.37 2.37 0 0 0-.197.033z" fill="#2E3758"/><path fill-rule="evenodd" clip-rule="evenodd" d="M52.255 57.908a.31.31 0 0 1 .409.16c.207.475.396.823.565 1.054.178.245.294.305.336.313h.005a.195.195 0 0 0 .056-.04c.065-.06.135-.158.222-.295l.058-.093c.066-.106.14-.225.214-.324.092-.123.236-.288.442-.348a.495.495 0 0 1 .34.02.57.57 0 0 1 .22.179c.046.06.084.127.113.181a9.1 9.1 0 0 1 .086.162.643.643 0 0 0 .165.213c.047.035.12.068.258.057.29-.024.487-.194.748-.45l.043-.042c.23-.227.545-.537 1.008-.572.496-.038.83.233 1.067.436.01.01.021.018.032.027.245.21.38.326.56.342.19.016.303-.046.553-.183l.036-.02a2.667 2.667 0 0 1 1.232-.361c.575-.032 1.087.059 1.547.146l.077.014c.438.084.82.156 1.213.143a.31.31 0 1 1 .02.621c-.464.015-.91-.07-1.333-.15l-.092-.018c-.46-.087-.905-.163-1.397-.136a2.053 2.053 0 0 0-.969.286l-.06.033c-.224.125-.495.276-.88.243-.391-.033-.68-.285-.883-.463l-.06-.053c-.234-.2-.394-.305-.616-.288-.224.017-.385.167-.664.44-.251.245-.594.58-1.131.624a.971.971 0 0 1-.678-.176 1.244 1.244 0 0 1-.34-.412l-.063-.12a4.855 4.855 0 0 0-.04-.073.895.895 0 0 0-.057.07 3.6 3.6 0 0 0-.17.259 16.12 16.12 0 0 1-.074.118c-.086.137-.195.3-.328.421-.138.126-.342.242-.599.192-.286-.056-.522-.286-.72-.557-.206-.284-.416-.678-.632-1.17a.31.31 0 0 1 .16-.41zm2.369.997v.001z" fill="#fff"/><path fill-rule="evenodd" clip-rule="evenodd" d="M37.049 40.278a.428.428 0 0 0-.03.056c-.027.057-.057.14-.088.25a7.71 7.71 0 0 0-.181.917c-.115.773-.211 1.828-.289 3.077-.154 2.496-.232 5.737-.232 8.968s.078 6.447.232 8.89c.078 1.223.174 2.245.288 2.978.058.368.118.652.18.848.03.099.058.165.08.205l.004.006c.021.005.058.013.116.023.103.016.245.033.424.05.358.034.852.066 1.464.096 1.223.06 2.907.11 4.898.152 3.98.082 9.182.127 14.371.132 5.19.004 10.364-.033 14.29-.114 1.964-.04 3.614-.091 4.796-.154a26.96 26.96 0 0 0 1.395-.101 4.651 4.651 0 0 0 .417-.061c.016-.048.034-.118.053-.213.041-.206.081-.499.119-.87.075-.741.138-1.77.189-2.994.101-2.447.152-5.66.152-8.886 0-3.226-.05-6.462-.152-8.957a58.878 58.878 0 0 0-.19-3.084c-.037-.39-.077-.702-.12-.931a2.522 2.522 0 0 0-.074-.31 3.03 3.03 0 0 0-.412-.096 17.507 17.507 0 0 0-1.387-.158c-1.18-.099-2.826-.181-4.79-.246-3.925-.131-9.098-.195-14.286-.193-5.188.002-10.388.07-14.367.202-1.99.066-3.672.148-4.892.245-.611.048-1.102.1-1.455.156a4.105 4.105 0 0 0-.412.081.879.879 0 0 0-.111.036zm42.147-.011zM37.027 66.495l-.001-.002.001.002zM79.473 39.71a.497.497 0 0 1 .173.138c.06.08.098.181.124.267.028.094.053.207.077.333.047.255.089.588.127.984.077.795.14 1.866.192 3.119.101 2.506.152 5.75.152 8.982 0 3.232-.05 6.453-.153 8.912a54.427 54.427 0 0 1-.191 3.03c-.038.38-.08.695-.128.93a2.35 2.35 0 0 1-.08.31.614.614 0 0 1-.167.267.507.507 0 0 1-.17.09 1.39 1.39 0 0 1-.16.04c-.113.023-.26.043-.435.062-.35.038-.834.073-1.43.104-1.192.064-2.849.115-4.815.155-3.933.081-9.112.118-14.303.114a764.498 764.498 0 0 1-14.384-.132 187.638 187.638 0 0 1-4.915-.153c-.616-.03-1.12-.062-1.492-.097a7.335 7.335 0 0 1-.465-.056 1.188 1.188 0 0 1-.319-.086.6.6 0 0 1-.245-.255 1.742 1.742 0 0 1-.13-.321 6.855 6.855 0 0 1-.2-.937c-.119-.76-.217-1.805-.294-3.035-.156-2.46-.234-5.69-.234-8.929s.078-6.494.233-9.006c.078-1.256.176-2.332.294-3.13.06-.398.125-.735.198-.994.037-.13.077-.247.123-.345a.783.783 0 0 1 .195-.273.931.931 0 0 1 .348-.156c.128-.034.29-.066.477-.095.376-.059.884-.112 1.501-.161 1.235-.099 2.928-.181 4.921-.247 3.988-.132 9.196-.2 14.388-.202 5.192-.002 10.373.062 14.307.193 1.967.065 3.626.148 4.821.248.597.05 1.084.104 1.439.165.176.03.328.063.448.1.06.018.119.04.172.067z" fill="#CFD3E9"/><path d="M55.795 21.545H38.715a1.553 1.553 0 0 0 0 3.106h17.081a1.553 1.553 0 0 0 0-3.106z" fill="#fff"/><path opacity=".8" d="M62.628 26.825H38.093a.621.621 0 0 0 0 1.242h24.535a.621.621 0 0 0 0-1.242z" fill="#fff"/><path fill-rule="evenodd" clip-rule="evenodd" d="M32.813 33.657a.31.31 0 0 1 .311-.31h38.2a.31.31 0 1 1 0 .62h-38.2a.31.31 0 0 1-.31-.31z" fill="#2A2F54"/><path fill-rule="evenodd" clip-rule="evenodd" d="M84.732 21.547c.53-.193 1.474-.404 1.716-.431.308-.035-.384 2.064.574 4.535.638 1.647 1.371 2.954 2.2 3.92L77.89 38.113c-1.025-1.246-1.836-2.19-2.432-2.832-2.068-2.226-4.153-2.88-3.9-4.063 1.696.002 2.936-.272 3.72-.822 1.174-.826.488-2.29 1.43-2.796 2.02-1.084 4.951-.855 5.889-1.704.792-.719 1.505-2.168 2.136-4.348z" fill="#fff"/><path fill-rule="evenodd" clip-rule="evenodd" d="M74.41 30.912c-2.314.232.57 2.735 3.271 4.794.813.62 1.878-1.22 4.273-2.992 1.211-.897 5.396-3.053 5.362-4.29-.033-1.235-1.375-4.572-2.53-5.115-1.156-.543-1.564 1.816-4.664 3.684-2.938 1.77-3.204 3.718-5.211 4.09-.11.02-.38-.183-.5-.17z" fill="#F5F6FE"/><path fill-rule="evenodd" clip-rule="evenodd" d="M71.621 30.914a.31.31 0 0 1 .239.368c-.04.187.003.36.159.573.164.225.435.464.81.759.135.107.283.22.44.34.688.526 1.555 1.19 2.415 2.115.565.608 1.317 1.48 2.255 2.616l10.837-8.166c-.771-.97-1.451-2.225-2.044-3.756-.499-1.287-.567-2.473-.551-3.325a16.05 16.05 0 0 1 .027-.684l.014-.283c-.372.075-.997.227-1.384.368a.31.31 0 0 1-.212-.584c.55-.2 1.518-.417 1.787-.447a.36.36 0 0 1 .317.124.452.452 0 0 1 .096.204c.02.1.02.222.017.335a13.502 13.502 0 0 1-.02.43c-.01.163-.018.346-.021.549-.015.807.05 1.905.51 3.089.63 1.625 1.347 2.898 2.146 3.83l.215.252-11.835 8.918-.19-.23c-1.023-1.244-1.83-2.183-2.419-2.817-.82-.883-1.638-1.51-2.325-2.035-.161-.123-.315-.24-.46-.355-.374-.295-.706-.58-.926-.88-.23-.313-.352-.664-.265-1.07a.31.31 0 0 1 .368-.238zm14.597-9.65c0-.003 0-.003 0 0z" fill="#2A2F54"/><path fill-rule="evenodd" clip-rule="evenodd" d="M88.552 37.046c-.145.275 1.646 2.296 5.372 6.061.858.968.816 2.419-.094 3.24a2.14 2.14 0 0 1-.143.118c-.978.737-2.403.497-3.181-.536a2.441 2.441 0 0 1-.112-.162c-2.47-4.434-3.919-6.712-4.346-6.834-.428-.123-1.406.615-2.936 2.212-1.29.972-3.15.773-4.588-.122-1.525-.876-2.155-1.656-1.89-2.34.29-.75 2.662-2.4 5.873-4.584 3.088-2.101 6.91-5.138 7.386-5.278.646-.19 1.306.804 1.978 2.985.255 1.496-.275 2.333-1.436 3.208s-1.667 1.619-1.883 2.032z" fill="#fff"/><path fill-rule="evenodd" clip-rule="evenodd" d="M77.645 38.16c.105-.262 3.373-2.125 6.17-4.27 2.82-2.165 5.17-4.612 5.948-4.872 1.55-.518 2.317 3.349 1.861 4.844-.602 1.974-2.802 2.323-3.391 2.673-.13.078.286-.122.29.009.02.718 4.958 5.94 5.493 6.8.534.859.612 3.902-.945 3.015-1.558-.887-4.707-7.174-7.005-7.966-2.297-.792-3.062 2.739-4.956 2.882-1.894.143-3.674-2.591-3.465-3.116z" fill="#C8CDE8"/><path fill-rule="evenodd" clip-rule="evenodd" d="M89.337 30.627c-1.862.156-11.239 4.055-8.104 6.493 3.135 2.438 3.405-1.85 5.33.435 1.926 2.284 3.699 4.977 4.327 5.31.628.333 2.08-.307 1.665-.955-.93-1.454-4.063-3.801-4.044-4.79.042-2.144 2.677-2.266 3.078-3.778.4-1.512-.39-2.871-2.252-2.715z" fill="#ADB3CD"/><path fill-rule="evenodd" clip-rule="evenodd" d="M77.435 38.183c-.313.294-.467.496-.511.611-.078.202-.049.452.225.792.28.346.78.737 1.53 1.168l.004.003.005.002c1.363.849 3.065 1.004 4.217.152.761-.793 1.396-1.385 1.901-1.766.254-.191.486-.337.693-.428.199-.087.423-.144.634-.083.133.038.25.136.339.222.1.097.211.226.333.381.243.312.548.756.912 1.33.728 1.145 1.71 2.826 2.943 5.04.03.047.06.091.094.135.685.909 1.917 1.1 2.746.475a1.81 1.81 0 0 0 .122-.101c.77-.695.824-1.945.075-2.797-1.86-1.88-3.243-3.33-4.143-4.346-.45-.507-.785-.913-1-1.213a2.767 2.767 0 0 1-.246-.396.796.796 0 0 1-.066-.186.417.417 0 0 1 .034-.276c.24-.457.776-1.236 1.972-2.136.564-.426.942-.818 1.156-1.26.21-.43.279-.938.164-1.628-.332-1.073-.652-1.826-.955-2.282-.152-.23-.287-.364-.396-.432-.1-.061-.172-.065-.237-.046v.001c-.006.002-.026.011-.064.032a3.413 3.413 0 0 0-.183.111c-.15.097-.345.232-.58.4-.471.335-1.088.791-1.789 1.312l-.12.089c-1.378 1.022-3.056 2.267-4.563 3.292-1.606 1.093-2.995 2.047-4.018 2.82-.512.388-.926.725-1.228 1.008zm.853-1.503c1.038-.784 2.44-1.747 4.044-2.838 1.495-1.018 3.165-2.257 4.546-3.28l.116-.087c.7-.52 1.321-.98 1.798-1.319.238-.17.443-.311.605-.416.08-.052.154-.097.217-.132a.994.994 0 0 1 .19-.085.893.893 0 0 1 .739.113c.217.133.41.349.588.616.355.536.698 1.364 1.037 2.462l.005.02.004.02c.136.795.067 1.447-.214 2.024-.277.57-.745 1.034-1.341 1.484-1.047.788-1.53 1.456-1.75 1.843.032.065.092.16.187.293.196.274.514.66.96 1.163.89 1.004 2.264 2.446 4.125 4.328l.006.006.006.006c.96 1.084.93 2.73-.118 3.676a2.402 2.402 0 0 1-.164.136c-1.128.85-2.744.56-3.617-.598a2.734 2.734 0 0 1-.125-.181l-.005-.008-.005-.008c-1.234-2.215-2.21-3.887-2.93-5.019-.36-.566-.651-.991-.877-1.28a3.234 3.234 0 0 0-.275-.317c-.05-.047-.077-.066-.085-.072a.19.19 0 0 0-.043.003.708.708 0 0 0-.164.053 3.016 3.016 0 0 0-.568.355c-.47.354-1.083.924-1.844 1.719l-.018.018-.02.015c-1.425 1.074-3.43.83-4.934-.103-.772-.444-1.348-.88-1.698-1.314-.356-.441-.508-.923-.322-1.406.101-.26.353-.545.666-.84.325-.305.76-.657 1.278-1.05z" fill="#2A2F54"/><path d="M92.754 44.682a.776.776 0 1 0-.934-1.24.776.776 0 0 0 .934 1.24z" fill="#fff"/><path fill-rule="evenodd" clip-rule="evenodd" d="M92.007 43.69a.466.466 0 1 0 .56.744.466.466 0 0 0-.56-.744zm-.588 1.026a1.087 1.087 0 1 1 1.736-1.309 1.087 1.087 0 0 1-1.736 1.309z" fill="#2E3758"/><path fill-rule="evenodd" clip-rule="evenodd" d="M73.996 26.657c.276-.421.575-.826 1.034-1.169.23-.171.628-.395 1.086-.641.206-.11.424-.226.649-.344.292-.155.599-.317.912-.486a24.535 24.535 0 0 0 1.552-.9c.467-.3.82-.573 1.01-.797.503-.596 1.445-1.035 2.247-1.238.405-.103.807-.154 1.13-.123.161.016.326.054.464.135a.605.605 0 0 1 .302.423c.052.302-.053.554-.206.753-.146.191-.349.352-.534.488l-.183.132c-.126.09-.242.172-.35.262a1.08 1.08 0 0 0-.27.3v.013c.002.045.009.105.017.187l.001.006c.017.164.04.388.04.63 0 .473-.086 1.104-.572 1.526-.737.638-1.777 1.021-3.083 1.178h-.007c-.716.07-1.3.182-1.758.331-.46.15-.774.332-.969.529-.248.251-.248.608-.203 1.13l.006.066c.02.221.042.472.022.705-.022.264-.1.544-.321.772-.332.342-.79.69-1.377.86-.592.173-1.291.157-2.083-.193-.436-.193-.69-.494-.744-.876-.05-.351.082-.703.243-.996.165-.3.388-.585.584-.817.099-.116.194-.222.273-.31v-.002c.082-.09.142-.157.181-.205.289-.357.501-.692.71-1.02.066-.104.13-.206.197-.309zm8.842-3.23v.002-.001zm-8.503 3.854c-.212.333-.45.708-.763 1.095-.049.06-.118.137-.19.219l-.011.012c-.08.088-.17.189-.262.298-.187.221-.378.469-.513.714-.14.254-.194.46-.173.61.017.12.09.266.38.395.665.294 1.214.295 1.659.165.452-.131.82-.405 1.104-.697.086-.088.133-.21.149-.391a3.71 3.71 0 0 0-.028-.665v-.001c-.042-.473-.1-1.135.38-1.62.29-.293.705-.515 1.217-.682.514-.168 1.145-.285 1.888-.358 1.232-.148 2.136-.502 2.746-1.03.273-.238.359-.628.359-1.056 0-.207-.02-.402-.038-.565l-.001-.016c-.008-.073-.016-.146-.02-.206a.988.988 0 0 1 0-.104.447.447 0 0 1 .03-.149c.098-.238.285-.425.464-.574.126-.105.273-.21.408-.307l.154-.11c.183-.135.321-.25.409-.365.077-.1.1-.18.089-.26a.536.536 0 0 0-.215-.056c-.225-.021-.55.013-.918.107-.747.189-1.543.583-1.925 1.036-.254.3-.676.615-1.149.92-.48.308-1.04.624-1.592.923-.31.168-.628.335-.927.493l-.636.338c-.468.251-.823.453-1.008.592-.37.276-.622.608-.886 1.011-.059.09-.119.185-.181.284z" fill="#2A2F54"/><path fill-rule="evenodd" clip-rule="evenodd" d="M77.127 31.583a.31.31 0 0 1 .44-.017c.584.54 1.01.976 1.266 1.3l-.22.173.22-.173c.258.326.553.807.887 1.431a.31.31 0 0 1-.548.293c-.328-.613-.603-1.056-.826-1.34-.225-.284-.621-.692-1.201-1.228a.31.31 0 0 1-.018-.439zM78.579 28.45a.31.31 0 0 1 .437.04l1.486 1.782a.31.31 0 1 1-.477.397l-1.486-1.782a.31.31 0 0 1 .04-.438zm2.456 2.945a.31.31 0 0 1 .437.04l.914 1.097a.31.31 0 0 1-.477.398l-.914-1.097a.31.31 0 0 1 .04-.438zM84.834 23.536c.171 0 .31.139.31.31 0 .91.167 1.612.473 2.13.334.565.864 1.316 1.594 2.256a.31.31 0 1 1-.49.381c-.737-.947-1.285-1.722-1.639-2.32-.38-.645-.559-1.468-.559-2.447 0-.171.14-.31.311-.31zM83.752 26.306a.31.31 0 0 1 .423.118c.367.653.662 1.15.885 1.496.223.346.516.76.882 1.242a.31.31 0 0 1-.496.375c-.37-.49-.674-.917-.908-1.28a31.058 31.058 0 0 1-.904-1.528.31.31 0 0 1 .118-.423zM74.8 32.516a.31.31 0 0 1 .435-.066c.496.365.857.652 1.075.856.22.208.473.5.757.87a.31.31 0 1 1-.493.378 6.89 6.89 0 0 0-.69-.795c-.188-.177-.524-.446-1.017-.81a.31.31 0 0 1-.066-.433zM81.132 27.25a.31.31 0 0 1 .437.042l2.963 3.59a.31.31 0 1 1-.479.396l-2.963-3.59a.31.31 0 0 1 .041-.438z" fill="#CFD3E9"/></g><defs><clipPath id="a"><path fill="#fff" d="M0 0h100v84H0z"/></clipPath></defs></svg>