<svg xmlns="http://www.w3.org/2000/svg" width="98" height="98" fill="none"><g clip-path="url(#a)"><rect width="96" height="95.497" x="1" y="1.503" fill="#fff" rx="3.032"/><path fill="#F3F5F7" d="M46.474 11.105H97V97H46.474z"/><g filter="url(#b)"><rect width="12.786" height="12.786" x="50.011" y="21.716" fill="#fff" rx="2.685"/></g><path fill="#DADEFF" fill-rule="evenodd" d="M55.495 24.417a1.945 1.945 0 0 0-1.463.396c-.274.225-1.503 1.376-1.503 1.508 0 .132.804 1.525.964 1.711.107.125.356.03.748-.284-.358 2.396-.505 3.638-.441 3.725.096.13 5.443.437 5.57.18.128-.257-.316-3.502-.316-3.813 0-.195.359.274.429.233.07-.04 1.357-1.235 1.357-1.522 0-.286-1.462-1.579-1.786-1.737-.216-.106-.728-.238-1.536-.397-.3.468-.64.702-1.02.702-.57 0-.332-.619-1.003-.702Z" clip-rule="evenodd"/><path fill="#B5BDFF" fill-rule="evenodd" d="M58.24 28.13c-1.426 0-4.499 2.833-4.199 3.645.196.529 5.47.401 5.548 0 .076-.401.076-3.645-1.35-3.645Z" clip-rule="evenodd"/><path stroke="#99A0C3" stroke-linecap="round" stroke-linejoin="round" stroke-width=".403" d="M55.027 24.4c-.839.117-1.355.252-1.548.404-.289.228-1.589 1.399-1.589 1.533 0 .134.85 1.55 1.02 1.74.113.126.376.03.79-.29-.378 2.437-.534 3.7-.466 3.788.101.132 5.757.444 5.892.183.135-.261-.335-3.56-.335-3.877 0-.198.38.279.454.237.074-.041 1.435-1.256 1.435-1.547 0-.292-1.546-1.606-1.889-1.767-.228-.107-.77-.242-1.624-.403-.318.476-.678.714-1.08.714-.4 0-.755-.238-1.06-.714Z" clip-rule="evenodd"/><rect width="20.023" height="2.685" x="69.777" y="24.752" fill="#DFE1EC" rx=".537"/><path fill="#EAEBF2" fill-rule="evenodd" d="M69.777 29.317c0-.297.24-.537.537-.537h6.175c.297 0 .537.24.537.537v1.61c0 .297-.24.538-.537.538h-6.175a.537.537 0 0 1-.537-.537v-1.611Z" clip-rule="evenodd"/><g filter="url(#c)"><rect width="12.786" height="12.786" x="50.011" y="36.215" fill="#fff" rx="2.685"/></g><path fill="#DADEFF" fill-rule="evenodd" d="M55.495 38.916a1.945 1.945 0 0 0-1.463.396c-.274.225-1.503 1.376-1.503 1.508 0 .132.804 1.525.964 1.711.107.124.356.03.748-.284-.358 2.396-.505 3.638-.441 3.724.096.13 5.443.438 5.57.18.128-.256-.316-3.5-.316-3.812 0-.195.359.274.429.233.07-.04 1.357-1.236 1.357-1.522 0-.287-1.462-1.58-1.786-1.738-.216-.105-.728-.237-1.536-.396-.3.468-.64.702-1.02.702-.57 0-.332-.62-1.003-.702Z" clip-rule="evenodd"/><path fill="#B5BDFF" fill-rule="evenodd" d="M58.24 42.629c-1.426 0-4.499 2.833-4.199 3.645.196.529 5.47.4 5.548 0 .076-.402.076-3.645-1.35-3.645Z" clip-rule="evenodd"/><path stroke="#99A0C3" stroke-linecap="round" stroke-linejoin="round" stroke-width=".403" d="M55.027 38.9c-.839.116-1.355.25-1.548.403-.289.228-1.589 1.398-1.589 1.533 0 .134.85 1.55 1.02 1.74.113.126.376.03.79-.29-.378 2.437-.534 3.699-.466 3.787.101.133 5.757.445 5.892.184.135-.261-.335-3.56-.335-3.877 0-.199.38.278.454.237.074-.041 1.435-1.256 1.435-1.547 0-.292-1.546-1.606-1.889-1.767-.228-.108-.77-.242-1.624-.403-.318.476-.678.714-1.08.714-.4 0-.755-.238-1.06-.714Z" clip-rule="evenodd"/><rect width="20.023" height="2.685" x="69.777" y="39.251" fill="#DFE1EC" rx=".537"/><path fill="#EAEBF2" fill-rule="evenodd" d="M69.777 43.816c0-.297.24-.537.537-.537h6.175c.297 0 .537.24.537.536v1.611c0 .297-.24.538-.537.538h-6.175a.537.537 0 0 1-.537-.538v-1.61Z" clip-rule="evenodd"/><g filter="url(#d)"><rect width="12.786" height="12.786" x="50.011" y="52.032" fill="#fff" rx="2.685"/></g><path fill="#DADEFF" fill-rule="evenodd" d="M55.495 54.733a1.945 1.945 0 0 0-1.463.396c-.274.225-1.503 1.376-1.503 1.508 0 .132.804 1.525.964 1.711.107.124.356.03.748-.284-.358 2.396-.505 3.638-.441 3.724.096.13 5.443.438 5.57.18.128-.256-.316-3.5-.316-3.812 0-.195.359.274.429.233.07-.04 1.357-1.236 1.357-1.522 0-.287-1.462-1.58-1.786-1.738-.216-.105-.728-.238-1.536-.396-.3.468-.64.702-1.02.702-.57 0-.332-.62-1.003-.702Z" clip-rule="evenodd"/><path fill="#B5BDFF" fill-rule="evenodd" d="M58.24 58.446c-1.426 0-4.499 2.833-4.199 3.645.196.528 5.47.4 5.548 0 .076-.402.076-3.645-1.35-3.645Z" clip-rule="evenodd"/><path stroke="#99A0C3" stroke-linecap="round" stroke-linejoin="round" stroke-width=".403" d="M55.027 54.717c-.839.116-1.355.25-1.548.403-.289.228-1.589 1.398-1.589 1.533 0 .134.85 1.55 1.02 1.74.113.126.376.03.79-.29-.378 2.437-.534 3.699-.466 3.787.101.133 5.757.445 5.892.184.135-.261-.335-3.56-.335-3.877 0-.199.38.278.454.237.074-.041 1.435-1.256 1.435-1.547 0-.292-1.546-1.606-1.889-1.767-.228-.108-.77-.242-1.624-.403-.318.476-.678.714-1.08.714-.4 0-.755-.238-1.06-.714Z" clip-rule="evenodd"/><rect width="20.023" height="2.685" x="69.777" y="55.068" fill="#DFE1EC" rx=".537"/><path fill="#EAEBF2" fill-rule="evenodd" d="M69.777 59.633c0-.297.24-.538.537-.538h6.175c.297 0 .537.241.537.538v1.61c0 .297-.24.538-.537.538h-6.175a.537.537 0 0 1-.537-.538v-1.61Z" clip-rule="evenodd"/><path fill="#DFE3E8" d="M1 4.032A3.032 3.032 0 0 1 4.032 1h89.936A3.032 3.032 0 0 1 97 4.032v7.073H1V4.032Z"/><path fill="#F2F7F9" fill-rule="evenodd" d="M6.305 8.074a1.768 1.768 0 1 0 0-3.537 1.768 1.768 0 0 0 0 3.537Zm5.053 0a1.768 1.768 0 1 0 0-3.537 1.768 1.768 0 0 0 0 3.537Zm6.82-1.769a1.768 1.768 0 1 1-3.536 0 1.768 1.768 0 0 1 3.537 0Z" clip-rule="evenodd"/><path fill="#DFE1EC" fill-rule="evenodd" d="M6.053 33.842c0-.558.452-1.01 1.01-1.01h20.18c.559 0 1.01.452 1.01 1.01v3.032a1.01 1.01 0 0 1-1.01 1.01H7.063a1.01 1.01 0 0 1-1.01-1.01v-3.032Z" clip-rule="evenodd"/><path fill="#EAEBF2" fill-rule="evenodd" d="M6.053 41.421c0-.558.452-1.01 1.01-1.01H39.4c.558 0 1.01.452 1.01 1.01v3.032a1.01 1.01 0 0 1-1.01 1.01H7.063a1.01 1.01 0 0 1-1.01-1.01V41.42ZM6.053 55.063c0-.558.452-1.01 1.01-1.01H39.4c.558 0 1.01.452 1.01 1.01v3.032a1.01 1.01 0 0 1-1.01 1.01H7.063a1.01 1.01 0 0 1-1.01-1.01v-3.032ZM6.053 61.632c0-.558.452-1.01 1.01-1.01H39.4c.558 0 1.01.452 1.01 1.01v3.031a1.01 1.01 0 0 1-1.01 1.01H7.063a1.01 1.01 0 0 1-1.01-1.01v-3.031ZM6.053 68.2c0-.558.452-1.01 1.01-1.01H39.4c.558 0 1.01.452 1.01 1.01v3.032a1.01 1.01 0 0 1-1.01 1.01H7.063a1.01 1.01 0 0 1-1.01-1.01V68.2Z" clip-rule="evenodd"/><rect width="29.305" height="5.053" x="6.053" y="24.242" fill="#8390E4" rx="1.011"/><rect width="24.177" height="2.021" x="8.617" y="25.758" fill="#C7CCEF" rx="1.011"/><rect width="20.21" height="4.547" x="69.716" y="69.716" fill="#BDC0D5" rx=".537"/></g><rect width="96.505" height="96.505" x=".747" y=".747" stroke="#D5D9DE" stroke-linejoin="round" stroke-width=".505" rx="3.284"/><defs><filter id="b" width="23.525" height="23.525" x="44.641" y="16.883" color-interpolation-filters="sRGB" filterUnits="userSpaceOnUse"><feFlood flood-opacity="0" result="BackgroundImageFix"/><feColorMatrix in="SourceAlpha" result="hardAlpha" values="0 0 0 0 0 0 0 0 0 0 0 0 0 0 0 0 0 0 127 0"/><feOffset dy=".537"/><feGaussianBlur stdDeviation="2.685"/><feColorMatrix values="0 0 0 0 0 0 0 0 0 0 0 0 0 0 0 0 0 0 0.1 0"/><feBlend in2="BackgroundImageFix" result="effect1_dropShadow_54_7199"/><feBlend in="SourceGraphic" in2="effect1_dropShadow_54_7199" result="shape"/></filter><filter id="c" width="23.525" height="23.525" x="44.641" y="31.382" color-interpolation-filters="sRGB" filterUnits="userSpaceOnUse"><feFlood flood-opacity="0" result="BackgroundImageFix"/><feColorMatrix in="SourceAlpha" result="hardAlpha" values="0 0 0 0 0 0 0 0 0 0 0 0 0 0 0 0 0 0 127 0"/><feOffset dy=".537"/><feGaussianBlur stdDeviation="2.685"/><feColorMatrix values="0 0 0 0 0 0 0 0 0 0 0 0 0 0 0 0 0 0 0.1 0"/><feBlend in2="BackgroundImageFix" result="effect1_dropShadow_54_7199"/><feBlend in="SourceGraphic" in2="effect1_dropShadow_54_7199" result="shape"/></filter><filter id="d" width="23.525" height="23.525" x="44.641" y="47.199" color-interpolation-filters="sRGB" filterUnits="userSpaceOnUse"><feFlood flood-opacity="0" result="BackgroundImageFix"/><feColorMatrix in="SourceAlpha" result="hardAlpha" values="0 0 0 0 0 0 0 0 0 0 0 0 0 0 0 0 0 0 127 0"/><feOffset dy=".537"/><feGaussianBlur stdDeviation="2.685"/><feColorMatrix values="0 0 0 0 0 0 0 0 0 0 0 0 0 0 0 0 0 0 0.1 0"/><feBlend in2="BackgroundImageFix" result="effect1_dropShadow_54_7199"/><feBlend in="SourceGraphic" in2="effect1_dropShadow_54_7199" result="shape"/></filter><clipPath id="a"><rect width="96" height="96" x="1" y="1" fill="#fff" rx="3.032"/></clipPath></defs></svg>