<svg xmlns="http://www.w3.org/2000/svg" width="98" height="98" fill="none"><g clip-path="url(#a)"><rect width="96" height="96" x="1.505" y="1" fill="#fff" rx="3.032"/><rect width="40.421" height="54.568" x="6.558" y="26.768" fill="#F4F6F8" rx="2.021"/><path fill="#F2F7F9" fill-rule="evenodd" d="M33.337 49.393c0-.772-.632-1.404-1.404-1.404H22.11c-.772 0-1.404.632-1.404 1.404v9.825c0 .771.632 1.403 1.404 1.403h9.824c.772 0 1.404-.632 1.404-1.404v-9.824Zm-8.772 5.965 1.754 2.112 2.456-3.165 3.158 4.21H22.11l2.456-3.157Z" clip-rule="evenodd"/><path fill="#DFE1EC" fill-rule="evenodd" d="M52.032 33.842c0-.558.452-1.01 1.01-1.01h20.189c.558 0 1.01.452 1.01 1.01v3.032a1.01 1.01 0 0 1-1.01 1.01H53.042a1.01 1.01 0 0 1-1.01-1.01v-3.032Z" clip-rule="evenodd"/><rect width="40.421" height="5.053" x="52.032" y="47.989" fill="#8390E4" rx="1.011"/><rect width="33.347" height="2.021" x="55.568" y="49.505" fill="#C7CCEF" rx="1.011"/><rect width="40.289" height="5.053" x="52.032" y="40.41" fill="#EAEBF2" rx="1.011"/><path fill="#DFE1EC" fill-rule="evenodd" d="M54.558 60.621a2.526 2.526 0 1 0 0-5.053 2.526 2.526 0 0 0 0 5.053ZM62.137 60.621a2.526 2.526 0 1 0 0-5.053 2.526 2.526 0 0 0 0 5.053ZM69.716 60.621a2.526 2.526 0 1 0 0-5.053 2.526 2.526 0 0 0 0 5.053Z" clip-rule="evenodd"/><rect width="25.263" height="7.579" x="67.189" y="68.2" fill="#DFE1EC" rx="2.021"/><path fill="#F4F6F8" fill-rule="evenodd" d="M52.032 70.221c0-1.116.905-2.021 2.02-2.021h8.59c1.116 0 2.021.905 2.021 2.021v3.537a2.021 2.021 0 0 1-2.02 2.021h-8.59a2.021 2.021 0 0 1-2.021-2.021V70.22Z" clip-rule="evenodd"/><path fill="#DFE3E8" d="M1 4.032A3.032 3.032 0 0 1 4.032 1h89.936A3.032 3.032 0 0 1 97 4.032v7.073H1V4.032Z"/><path fill="#F2F7F9" fill-rule="evenodd" d="M6.305 8.074a1.768 1.768 0 1 0 0-3.537 1.768 1.768 0 0 0 0 3.537Zm5.053 0a1.768 1.768 0 1 0 0-3.537 1.768 1.768 0 0 0 0 3.537Zm6.82-1.769a1.768 1.768 0 1 1-3.536 0 1.768 1.768 0 0 1 3.537 0Z" clip-rule="evenodd"/><g filter="url(#b)"><rect width="24.06" height="24.06" x="15.148" y="42.937" fill="#fff" rx="5.053"/></g><path fill="#DADEFF" fill-rule="evenodd" d="M25.468 48.02c-1.263-.157-2.238.324-2.753.746-.514.423-2.827 2.589-2.827 2.837 0 .25 1.511 2.87 1.813 3.22.202.234.67.056 1.408-.534-.674 4.509-.95 6.845-.83 7.009.18.245 10.242.822 10.482.34.24-.484-.595-6.59-.595-7.176 0-.368.675.515.807.438.131-.076 2.554-2.325 2.554-2.864 0-.539-2.75-2.972-3.361-3.27-.407-.199-1.37-.447-2.89-.746-.566.881-1.205 1.322-1.92 1.322-1.072 0-.625-1.166-1.888-1.322Z" clip-rule="evenodd"/><path fill="#B5BDFF" fill-rule="evenodd" d="M30.634 55.007c-2.683 0-8.466 5.332-7.9 6.86.368.995 10.294.755 10.438 0 .144-.756.144-6.86-2.538-6.86Z" clip-rule="evenodd"/><path stroke="#99A0C3" stroke-linecap="round" stroke-linejoin="round" stroke-width=".758" d="M24.587 47.99c-1.578.22-2.549.472-2.912.758-.544.43-2.99 2.632-2.99 2.885 0 .253 1.598 2.918 1.918 3.274.213.238.709.056 1.489-.543-.713 4.584-1.006 6.959-.879 7.125.191.25 10.834.837 11.087.346.254-.492-.629-6.7-.629-7.296 0-.374.714.524.853.446.14-.078 2.702-2.364 2.702-2.912s-2.91-3.021-3.555-3.325c-.43-.202-1.45-.455-3.057-.758-.598.895-1.274 1.343-2.03 1.343-.756 0-1.421-.448-1.997-1.343Z" clip-rule="evenodd"/></g><rect width="96.505" height="96.505" x=".747" y=".747" stroke="#D5D9DE" stroke-linejoin="round" stroke-width=".505" rx="3.284"/><defs><clipPath id="a"><rect width="96" height="96" x="1" y="1" fill="#fff" rx="3.032"/></clipPath><filter id="b" width="44.271" height="44.271" x="5.042" y="33.842" color-interpolation-filters="sRGB" filterUnits="userSpaceOnUse"><feFlood flood-opacity="0" result="BackgroundImageFix"/><feColorMatrix in="SourceAlpha" result="hardAlpha" values="0 0 0 0 0 0 0 0 0 0 0 0 0 0 0 0 0 0 127 0"/><feOffset dy="1.011"/><feGaussianBlur stdDeviation="5.053"/><feColorMatrix values="0 0 0 0 0 0 0 0 0 0 0 0 0 0 0 0 0 0 0.1 0"/><feBlend in2="BackgroundImageFix" result="effect1_dropShadow_54_7121"/><feBlend in="SourceGraphic" in2="effect1_dropShadow_54_7121" result="shape"/></filter></defs></svg>