<svg xmlns="http://www.w3.org/2000/svg" width="98" height="98" fill="none"><g clip-path="url(#a)"><rect width="96" height="95.497" x="1" y="1.503" fill="#fff" rx="3.032"/><path fill="#F3F5F7" d="M46.474 11.105H97V97H46.474z"/><rect width="20.023" height="2.685" x="55.063" y="21.716" fill="#DFE1EC" rx=".537"/><path fill="#EAEBF2" fill-rule="evenodd" d="M55.063 26.28c0-.296.24-.537.537-.537h6.175c.297 0 .537.24.537.537v1.611c0 .297-.24.537-.537.537H55.6a.537.537 0 0 1-.537-.537v-1.61Z" clip-rule="evenodd"/><rect width="20.023" height="2.685" x="55.063" y="36.215" fill="#DFE1EC" rx=".537"/><path fill="#EAEBF2" fill-rule="evenodd" d="M55.063 40.779c0-.297.24-.537.537-.537h6.175c.297 0 .537.24.537.537v1.61c0 .297-.24.538-.537.538H55.6a.537.537 0 0 1-.537-.537v-1.611Z" clip-rule="evenodd"/><path fill="#DFE3E8" d="M1 4.032A3.032 3.032 0 0 1 4.032 1h89.936A3.032 3.032 0 0 1 97 4.032v7.073H1V4.032Z"/><path fill="#F2F7F9" fill-rule="evenodd" d="M6.305 8.074a1.768 1.768 0 1 0 0-3.537 1.768 1.768 0 0 0 0 3.537Zm5.053 0a1.768 1.768 0 1 0 0-3.537 1.768 1.768 0 0 0 0 3.537Zm6.82-1.769a1.768 1.768 0 1 1-3.536 0 1.768 1.768 0 0 1 3.537 0Z" clip-rule="evenodd"/><path fill="#DFE1EC" fill-rule="evenodd" d="M6.053 43.947c0-.558.452-1.01 1.01-1.01h20.18c.559 0 1.01.452 1.01 1.01v3.032a1.01 1.01 0 0 1-1.01 1.01H7.063a1.01 1.01 0 0 1-1.01-1.01v-3.032Z" clip-rule="evenodd"/><path fill="#EAEBF2" fill-rule="evenodd" d="M6.053 51.526c0-.558.452-1.01 1.01-1.01H39.4c.558 0 1.01.452 1.01 1.01v3.032a1.01 1.01 0 0 1-1.01 1.01H7.063a1.01 1.01 0 0 1-1.01-1.01v-3.032ZM6.053 65.168c0-.558.452-1.01 1.01-1.01H39.4c.558 0 1.01.452 1.01 1.01V68.2a1.01 1.01 0 0 1-1.01 1.01H7.063a1.01 1.01 0 0 1-1.01-1.01v-3.032ZM6.053 71.737c0-.558.452-1.01 1.01-1.01H39.4c.558 0 1.01.452 1.01 1.01v3.031a1.01 1.01 0 0 1-1.01 1.01H7.063a1.01 1.01 0 0 1-1.01-1.01v-3.031Z" clip-rule="evenodd"/><rect width="29.305" height="5.053" x="6.053" y="34.347" fill="#8390E4" rx="1.011"/><rect width="24.177" height="2.021" x="8.617" y="35.863" fill="#C7CCEF" rx="1.011"/><circle cx="10.535" cy="26.198" r="4.288" stroke="#99A0C3" stroke-width=".39"/><path stroke="#99A0C3" stroke-linecap="round" stroke-linejoin="round" stroke-width=".39" d="m8.502 26.438 1.255 1.255 2.75-2.75"/><path fill="#565970" d="M17.68 27.726V25.37h-.845v-.43h2.177v.43h-.844v2.356h-.489Zm3.18 0v-1.27c0-.313-.163-.41-.41-.41a.678.678 0 0 0-.518.272v1.408h-.439V24.94h.44v1.045a.965.965 0 0 1 .714-.326c.434 0 .651.226.651.64v1.428h-.438Zm2.32 0v-.217c-.15.171-.384.267-.652.267-.33 0-.702-.221-.702-.668 0-.464.372-.656.702-.656.272 0 .506.088.652.259v-.3c0-.235-.192-.377-.472-.377a.826.826 0 0 0-.598.255l-.18-.305a1.2 1.2 0 0 1 .85-.326c.446 0 .839.188.839.731v1.337h-.439Zm0-.46v-.304c-.1-.138-.288-.21-.48-.21-.247 0-.43.143-.43.364 0 .218.183.36.43.36.192 0 .38-.071.48-.21Zm2.45.46v-1.261c0-.314-.16-.418-.406-.418a.664.664 0 0 0-.518.271v1.408h-.439v-2.018h.439v.276a.955.955 0 0 1 .71-.326c.435 0 .652.234.652.648v1.42h-.439Zm2.424 0-.618-.831-.28.288v.543h-.439V24.94h.439v1.743l.89-.974h.543l-.84.915.857 1.103h-.552Zm2.074.397a.46.46 0 0 0 .167.034c.138 0 .23-.042.288-.176l.1-.23-.827-2.043h.468l.59 1.513.588-1.513h.472l-.973 2.382c-.138.343-.38.451-.694.455a1.24 1.24 0 0 1-.246-.029l.067-.393Zm3.112-.347c-.64 0-1.036-.48-1.036-1.06 0-.578.397-1.058 1.036-1.058.648 0 1.04.48 1.04 1.057 0 .58-.392 1.061-1.04 1.061Zm0-.388c.376 0 .585-.314.585-.673 0-.355-.209-.668-.585-.668-.372 0-.58.313-.58.668 0 .36.208.673.58.673Zm2.926.338v-.267a.967.967 0 0 1-.714.317c-.435 0-.648-.225-.648-.639v-1.429h.439v1.27c0 .314.158.41.405.41a.671.671 0 0 0 .518-.263v-1.417h.439v2.018h-.439Zm1.126-.852-.08-1.935h.535l-.075 1.935h-.38Zm-.1.606c0-.159.129-.293.288-.293.158 0 .292.134.292.293a.295.295 0 0 1-.292.288.292.292 0 0 1-.289-.288Z"/></g><rect width="97" height="97" x=".5" y=".5" stroke="#D5D9DE" stroke-linejoin="round" rx="3.5"/><defs><clipPath id="a"><rect width="96" height="96" x="1" y="1" fill="#fff" rx="3"/></clipPath></defs></svg>