<svg xmlns="http://www.w3.org/2000/svg" width="98" height="98" fill="none"><g clip-path="url(#a)"><rect width="96" height="96" x="1" y="1" fill="#fff" rx="3.032"/><path fill="#BDC0D5" fill-rule="evenodd" d="M39.905 38.39c0 5.02 4.075 9.094 9.095 9.094 5.02 0 9.095-4.074 9.095-9.095 0-5.02-4.075-9.094-9.095-9.094-5.02 0-9.095 4.074-9.095 9.094Zm11.823-3.638A2.725 2.725 0 0 1 49 37.48a2.725 2.725 0 0 1-2.728-2.728A2.725 2.725 0 0 1 49 32.023a2.725 2.725 0 0 1 2.728 2.729Zm-8.185 7.257c.027-1.81 3.638-2.801 5.457-2.801 1.81 0 5.43.991 5.457 2.801a6.549 6.549 0 0 1-10.914 0Z" clip-rule="evenodd"/><rect width="40.421" height="5.053" x="28.79" y="54.81" fill="#DFE1EC" rx="1.011"/><path fill="#EAEBF2" fill-rule="evenodd" d="M17.169 63.4c0-.558.452-1.01 1.01-1.01h61.137c.558 0 1.01.452 1.01 1.01v3.032a1.01 1.01 0 0 1-1.01 1.01H18.179a1.01 1.01 0 0 1-1.01-1.01V63.4ZM17.169 70.979c0-.558.452-1.01 1.01-1.01h61.137c.558 0 1.01.452 1.01 1.01v3.031a1.01 1.01 0 0 1-1.01 1.011H18.179a1.01 1.01 0 0 1-1.01-1.01v-3.032ZM17.169 78.558c0-.558.452-1.01 1.01-1.01h61.137c.558 0 1.01.452 1.01 1.01v3.031a1.01 1.01 0 0 1-1.01 1.011H18.179a1.01 1.01 0 0 1-1.01-1.01v-3.032Z" clip-rule="evenodd"/><path fill="#DFE3E8" d="M1 4.032A3.032 3.032 0 0 1 4.032 1h89.936A3.032 3.032 0 0 1 97 4.032v7.073H1V4.032Z"/><path fill="#F2F7F9" fill-rule="evenodd" d="M6.305 8.074a1.768 1.768 0 1 0 0-3.537 1.768 1.768 0 0 0 0 3.537Zm5.053 0a1.768 1.768 0 1 0 0-3.537 1.768 1.768 0 0 0 0 3.537Zm6.82-1.769a1.768 1.768 0 1 1-3.536 0 1.768 1.768 0 0 1 3.537 0Z" clip-rule="evenodd"/><rect width="63.158" height="5.053" x="17.169" y="17.674" fill="#8390E4" rx="1.011"/><rect width="52.105" height="2.021" x="22.695" y="19.189" fill="#C7CCEF" rx="1.011"/></g><rect width="96.505" height="96.505" x=".747" y=".747" stroke="#D5D9DE" stroke-linejoin="round" stroke-width=".505" rx="3.284"/><defs><clipPath id="a"><rect width="96" height="96" x="1" y="1" fill="#fff" rx="3.032"/></clipPath></defs></svg>