<svg xmlns="http://www.w3.org/2000/svg" width="30" height="30" viewBox="0 0 30 30">
    <g fill="none" fill-rule="evenodd">
        <path fill="#6A71FF" d="M21.741 13.919l-2.643 2.643a.45.45 0 0 1-.636 0l-.778-.778a.45.45 0 0 1 0-.636l2.698-2.698a5.194 5.194 0 0 1-2.58-.44c-1.118-.503-2.077-1.462-2.885-2.851a.75.75 0 1 1 1.296-.755c.663 1.139 1.4 1.877 2.205 2.239.46.206.94.315 1.45.324l-1.532-1.532a3.007 3.007 0 0 1 0-4.252c1.186-1.186 2.95-1.353 4.052-.252.96.962 1.262 2.534.92 4.106l-.448 2.336 2.336-.448c1.573-.342 3.145-.04 4.106.92 1.101 1.102.934 2.867-.251 4.053a3.007 3.007 0 0 1-4.253 0l-1.567-1.568c.01.51.118.991.325 1.45.362.805 1.1 1.543 2.238 2.205a.75.75 0 0 1-.754 1.297c-1.39-.809-2.349-1.768-2.852-2.886a5.182 5.182 0 0 1-.447-2.477zm4.118.918a1.507 1.507 0 0 0 2.131 0c.64-.64.718-1.464.251-1.93-.556-.556-1.611-.759-2.745-.513l-1.745.335 2.108 2.108zm-4.355-4.355l-2.107-2.108a1.507 1.507 0 0 1 0-2.13c.64-.64 1.464-.718 1.93-.252.556.556.758 1.611.512 2.745l-.335 1.745zM13.448 15h1.104c.247 0 .448.2.448.448v11.104c0 .247-.2.448-.448.448h-1.104a.448.448 0 0 1-.448-.448V15.448c0-.247.2-.448.448-.448z"/>
        <path fill="#4D4D4D" fill-rule="nonzero" d="M22.618 21.78l-6.029-6.03H5.823l.952 10.273a.25.25 0 0 0 .25.227h14.95a.25.25 0 0 0 .25-.227l.393-4.244zm1.379 1.378l-.279 3.004a1.75 1.75 0 0 1-1.742 1.588H7.024a1.75 1.75 0 0 1-1.742-1.588L4.253 15.069A.75.75 0 0 1 5 14.25h10.09l-4.265-4.264a2.25 2.25 0 0 1 0-3.182l1.414-1.414a2.25 2.25 0 0 1 3.182 0l.366.365a.75.75 0 0 1-1.06 1.061l-.367-.366a.75.75 0 0 0-1.06 0l-1.414 1.414a.75.75 0 0 0 0 1.061L25.32 22.36a.75.75 0 0 0 1.06 0l1.414-1.414a.75.75 0 0 0 0-1.06l-.34-.341a.75.75 0 0 1 1.06-1.061l.341.34a2.25 2.25 0 0 1 0 3.183l-1.414 1.414a2.25 2.25 0 0 1-3.182 0l-.263-.263zM7.519 8.608a.75.75 0 0 1-1.5 0V7.015a.75.75 0 1 1 1.5 0v1.593zm-5.22.527a.75.75 0 0 1 1.067-1.054l1.18 1.196A.75.75 0 0 1 3.48 10.33L2.299 9.135zm.533 2.708a.75.75 0 0 1 0 1.5H1.258a.75.75 0 1 1 0-1.5h1.574z"/>
    </g>
</svg>
