<svg xmlns="http://www.w3.org/2000/svg" width="30" height="30" viewBox="0 0 30 30">
    <g fill="none" fill-rule="nonzero">
        <path fill="#6A71FF" d="M17.5 18.75a.75.75 0 1 1 0-1.5h5a.75.75 0 1 1 0 1.5h-5zm0 3a.75.75 0 1 1 0-1.5h3a.75.75 0 1 1 0 1.5h-3z"/>
        <path fill="#4D4D4D" d="M15.759 12.75h-1.951c.646 1.236 2.134 1.857 4.61 1.831a.75.75 0 0 1 .016 1.5c-2.728.028-4.66-.69-5.684-2.178V24.25h11.632a1.868 1.868 0 0 0 1.868-1.868V12.75H15.759zM12.75 8.67a4.716 4.716 0 0 1 2.08-1.312l.236-.073a2.729 2.729 0 0 1 3.512 2.255 2.83 2.83 0 0 1-.313 1.71h7.985V7.618a1.868 1.868 0 0 0-1.868-1.868H12.75v2.92zm-4.526 4.08H3.75v9.632c0 1.032.836 1.868 1.868 1.868h5.632V13.923c-1.028 1.475-2.955 2.186-5.671 2.158a.75.75 0 1 1 .016-1.5c2.476.026 3.964-.595 4.61-1.831h-1.98zm3.026-4.046V5.75H5.618A1.868 1.868 0 0 0 3.75 7.618v3.632h1.983a2.806 2.806 0 0 1-.208-2.128 2.714 2.714 0 0 1 3.391-1.8l.26.08c.814.25 1.523.707 2.074 1.302zM5.618 4.25h18.764a3.368 3.368 0 0 1 3.368 3.368v14.764a3.368 3.368 0 0 1-3.368 3.368H5.618a3.368 3.368 0 0 1-3.368-3.368V7.618A3.368 3.368 0 0 1 5.618 4.25zm2.606 7h2.713a3.21 3.21 0 0 0-2.202-2.414l-.259-.08a1.214 1.214 0 0 0-1.56 1.004 1.319 1.319 0 0 0 1.308 1.49zm7.535 0a1.343 1.343 0 0 0 1.287-1.72 1.229 1.229 0 0 0-1.537-.812l-.237.073a3.225 3.225 0 0 0-2.212 2.459h2.699z"/>
    </g>
</svg>
