<svg xmlns="http://www.w3.org/2000/svg" width="30" height="30" viewBox="0 0 30 30">
    <g fill="none" fill-rule="nonzero">
        <path fill="#6A71FF" d="M4.745 14.004a.75.75 0 1 1 1.228-.86l.574.819a.75.75 0 0 1-1.229.86l-.573-.819zm2.294 3.277a.75.75 0 1 1 1.229-.86l.573.818a.75.75 0 0 1-1.228.86l-.574-.818zm2.294 3.276a.75.75 0 0 1 1.229-.86l.574.819a.75.75 0 1 1-1.23.86l-.573-.819zm2.295 3.277a.75.75 0 1 1 1.228-.86l.574.819a.75.75 0 0 1-1.229.86l-.573-.82z"/>
        <path fill="#4D4D4D" d="M29.132 14.016c.55.786.383 1.868-.396 2.413l-17.27 12.093c-.779.545-1.853.332-2.403-.454L7.46 25.78a3.75 3.75 0 0 1-.634-2.723l.027-.178a2.697 2.697 0 0 0-.456-1.959l-.132-.188a2.697 2.697 0 0 0-1.684-1.098l-.177-.035a3.75 3.75 0 0 1-2.342-1.528L.46 15.781c-.55-.786-.383-1.868.396-2.413l17.27-12.093c.78-.546 1.853-.333 2.403.453l1.603 2.29a3.75 3.75 0 0 1 .635 2.723l-.028.177a2.697 2.697 0 0 0 .456 1.96l.132.188c.399.57 1.003.963 1.685 1.098l.176.035a3.75 3.75 0 0 1 2.342 1.527l1.603 2.29zm-4.237-2.346l-.176-.035c-1.062-.21-2-.823-2.622-1.71l-.131-.187a4.197 4.197 0 0 1-.71-3.048l.027-.178a2.25 2.25 0 0 0-.38-1.634L19.3 2.588c-.083-.118-.226-.146-.314-.085L1.716 14.596c-.09.062-.111.206-.028.325L3.29 17.21a2.25 2.25 0 0 0 1.405.916l.176.035c1.062.21 2.001.823 2.622 1.71l.132.188c.62.887.875 1.979.71 3.048l-.028.178a2.25 2.25 0 0 0 .38 1.634l1.604 2.289c.083.119.225.147.314.085L27.876 15.2c.088-.061.11-.205.027-.324l-1.603-2.29a2.25 2.25 0 0 0-1.405-.916zm-9.093 8.179l-1.478-.26L16.29 8.445l1.477.26-1.964 11.143zm-2.644-4.595a2.25 2.25 0 1 1-2.581-3.686 2.25 2.25 0 0 1 2.58 3.686zm-.86-1.229a.75.75 0 1 0-.861-1.229.75.75 0 0 0 .86 1.23zm9.216 2.702a2.25 2.25 0 1 1-2.581-3.686 2.25 2.25 0 0 1 2.581 3.686zm-.86-1.228a.75.75 0 1 0-.86-1.23.75.75 0 0 0 .86 1.23z"/>
    </g>
</svg>
