<svg xmlns="http://www.w3.org/2000/svg" width="30" height="30" viewBox="0 0 30 30">
    <g fill="none" fill-rule="nonzero">
        <path fill="#4D4D4D" d="M10.25 12.25V7.635c0-.75.577-1.385 1.327-1.385h13.846c.75 0 1.327.636 1.327 1.385v1.882a.75.75 0 1 1-1.5 0V7.75h-13.5V17a.75.75 0 1 1-1.5 0v-3.25H7.151c-.01 0-.03.015-.043.055-.333 1.026-.726 1.785-1.203 2.284-.301.316-.693.588-1.174.822-.592.288-.981.933-.981 1.652v2.687h2.493a.75.75 0 1 1 0 1.5H3a.75.75 0 0 1-.75-.75v-3.437c0-1.284.708-2.458 1.825-3.001.33-.16.577-.332.746-.509.295-.309.59-.881.861-1.712a1.554 1.554 0 0 1 1.469-1.091h3.099zm8.75 9a.75.75 0 1 1 0 1.5h-3a.75.75 0 1 1 0-1.5h3zm-8 3.5a2.75 2.75 0 1 1 0-5.5 2.75 2.75 0 0 1 0 5.5zm0-1.5a1.25 1.25 0 1 0 0-2.5 1.25 1.25 0 0 0 0 2.5zm13 1.5a2.75 2.75 0 1 1 0-5.5 2.75 2.75 0 0 1 0 5.5zm0-1.5a1.25 1.25 0 1 0 0-2.5 1.25 1.25 0 0 0 0 2.5z"/>
        <path fill="#6A71FF" d="M21 13.75a.75.75 0 1 1 0-1.5h7a.75.75 0 1 1 0 1.5h-7zm.7 3a.75.75 0 1 1 0-1.5H26a.75.75 0 1 1 0 1.5h-4.3z"/>
    </g>
</svg>
