<svg xmlns="http://www.w3.org/2000/svg" width="30" height="30" viewBox="0 0 30 30">
    <g fill="none" fill-rule="evenodd">
        <path fill="#4D4D4D" d="M16.3527 9.60795C15.3829 8.97584 14.6835 7.96403 14.465 6.78516C14.418 6.53051 14.3918 6.26819 14.3918 6H11.2972L11.2923 18.4018C11.2404 19.7907 10.0971 20.9054 8.69614 20.9054C8.26044 20.9054 7.85048 20.7966 7.48928 20.6065C6.66122 20.1708 6.09459 19.303 6.09459 18.3043C6.09459 16.8699 7.26172 15.7028 8.69569 15.7028C8.96343 15.7028 9.22033 15.747 9.46324 15.8229V12.6637C9.21176 12.6294 8.95621 12.6082 8.69569 12.6082C5.55505 12.6082 3 15.1632 3 18.3043C3 20.2313 3.9626 21.9366 5.43179 22.9679C6.35691 23.6176 7.48251 24 8.69614 24C11.8368 24 14.3918 21.445 14.3918 18.3043V12.0154C15.6055 12.8863 17.0927 13.3997 18.6973 13.3997V10.3051C17.8332 10.3051 17.0281 10.0482 16.3527 9.60795Z" />
        <path fill="#4A4A4A" fill-rule="nonzero" d="M24.6973 14.25H26.4473C26.8616 14.25 27.1973 14.5858 27.1973 15C27.1973 15.4142 26.8616 15.75 26.4473 15.75H24.6973V17.5C24.6973 17.9142 24.3616 18.25 23.9473 18.25C23.5331 18.25 23.1973 17.9142 23.1973 17.5V15.75H21.4473C21.0331 15.75 20.6973 15.4142 20.6973 15C20.6973 14.5858 21.0331 14.25 21.4473 14.25H23.1973V12.5C23.1973 12.0858 23.5331 11.75 23.9473 11.75C24.3616 11.75 24.6973 12.0858 24.6973 12.5V14.25Z" />
    </g>
</svg>