<svg height="30" viewBox="0 0 30 30" width="30" xmlns="http://www.w3.org/2000/svg">
  <g fill="none" fill-rule="nonzero">
  <path fill="#4D4D4D" d="m11.4821 11.6218 6.5568-7.6218h-1.5537l-5.6933 6.6179-4.54723-6.6179h-5.24467l6.87627 10.0074-6.87627 7.9926h1.55384l6.01226-6.9887 4.8022 6.9887h5.2447l-7.1313-10.3782zm-2.1282 2.4738-.69671-.9965-5.54347-7.92939h2.38661l4.47365 6.39919.69672.9966 5.8152 8.318h-2.3866l-4.7454-6.7875z" />
  <path d="m25.8942 19.3556-2.6829 1.7295c.0165.1065.0251.2156.0251.3267 0 .1511-.0159.2986-.046.4408l2.6729 1.7231c.2647-.158.5742-.2488.9049-.2488.9765 0 1.7682.7917 1.7682 1.7682s-.7917 1.7682-1.7682 1.7682c-.9766 0-1.7682-.7917-1.7682-1.7682 0-.0944.0074-.187.0216-.2774l-2.6427-1.7036c-.3523.2613-.7885.4158-1.2607.4158-1.1699 0-2.1182-.9483-2.1182-2.1181 0-1.1699.9483-2.1182 2.1182-2.1182.513 0 .9835.1824 1.35.4859l2.5592-1.6497c-.018-.1012-.0274-.2053-.0274-.3116 0-.9766.7916-1.7682 1.7682-1.7682.9765 0 1.7682.7916 1.7682 1.7682 0 .9765-.7917 1.7682-1.7682 1.7682-.3179 0-.6162-.0839-.874-.2308z" fill="#4A4A4A"/>
       </g>
</svg>