<svg fill="none" height="30" viewBox="0 0 30 30" width="30" xmlns="http://www.w3.org/2000/svg">
  <g fill="none" fill-rule="nonzero">
  <path d="m12.4821 13.6218 6.5568-7.6218h-1.5537l-5.6933 6.6179-4.54723-6.6179h-5.24467l6.87627 10.0074-6.87627 7.9926h1.55384l6.01226-6.9887 4.8022 6.9887h5.2447l-7.1313-10.3782zm-2.1282 2.4738-.69671-.9965-5.54347-7.92939h2.38661l4.47367 6.39919.6967.9966 5.8152 8.318h-2.3866l-4.7454-6.7875z" fill="#4D4D4D"/>
  <path d="m24.613 14.25h1.75c.4142 0 .75.3358.75.75s-.3358.75-.75.75h-1.75v1.75c0 .4142-.3358.75-.75.75-.4143 0-.75-.3358-.75-.75v-1.75h-1.75c-.4143 0-.75-.3358-.75-.75s.3357-.75.75-.75h1.75v-1.75c0-.4142.3357-.75.75-.75.4142 0 .75.3358.75.75z" fill="#4A4A4A"/>
</g>
</svg>